<svg xmlns="http://www.w3.org/2000/svg" viewBox="0 0 64 64">
  <rect width="64" height="64" rx="12" fill="#0f172a"/>
  <path fill="#F8FAFC" d="M32 10a22 22 0 0 0-7 42c1 .2 1.5-.4 1.5-1v-4c-6 1.3-7-2.5-7-2.5-1-2.4-2.3-3-2.3-3-1.9-1.3.1-1.3.1-1.3 2.1.2 3.2 2.2 3.2 2.2 1.9 3.2 4.9 2.3 6.1 1.8.2-1.4.8-2.3 1.4-2.8-4.8-.5-9.8-2.4-9.8-10.7 0-2.4.9-4.3 2.2-5.8-.2-.5-1-2.8.2-5.7 0 0 1.8-.6 5.9 2.2a20 20 0 0 1 10.8 0c4.1-2.8 5.9-2.2 5.9-2.2 1.2 2.9.4 5.2.2 5.7 1.4 1.5 2.2 3.4 2.2 5.8 0 8.3-5 10.2-9.8 10.7.8.7 1.5 2 1.5 4.1V51c0 .6.5 1.2 1.5 1A22 22 0 0 0 32 10Z"/>
</svg>
