<svg width="720" height="520" viewBox="0 0 720 520" fill="none" xmlns="http://www.w3.org/2000/svg">
  <rect width="720" height="520" rx="42" fill="#050604"/>
  <rect x="38" y="36" width="644" height="448" rx="34" fill="url(#paint0_linear)" stroke="#D8C7A3" stroke-opacity=".2"/>
  <path d="M96 153h528M96 345h528M151 101v320M569 101v320" stroke="#F5EFE2" stroke-opacity=".08"/>
  <path d="M360 88 146 183h428L360 88Z" fill="url(#paint1_linear)" stroke="#F5EFE2" stroke-opacity=".18"/>
  <path d="M185 183h350v34H185v-34Z" fill="#D8C7A3" fill-opacity=".18" stroke="#F5EFE2" stroke-opacity=".16"/>
  <path d="M208 217h55v150h-55V217Zm125 0h55v150h-55V217Zm125 0h55v150h-55V217Z" fill="#F5EFE2" fill-opacity=".1" stroke="#F5EFE2" stroke-opacity=".14"/>
  <path d="M154 367h412v39H154v-39Z" fill="#D8C7A3" fill-opacity=".17" stroke="#F5EFE2" stroke-opacity=".15"/>
  <path d="M128 406h464v37H128v-37Z" fill="#F5EFE2" fill-opacity=".09" stroke="#F5EFE2" stroke-opacity=".13"/>
  <circle cx="360" cy="184" r="58" fill="#050604" stroke="#D8C7A3" stroke-opacity=".35"/>
  <path d="M324 188c29-29 42-29 71 0-29 29-42 29-71 0Z" fill="#D8C7A3" fill-opacity=".16" stroke="#D8C7A3" stroke-opacity=".55"/>
  <path d="M360 155v64M328 187h64" stroke="#F5EFE2" stroke-opacity=".5"/>
  <rect x="433" y="64" width="166" height="104" rx="22" fill="#050604" fill-opacity=".74" stroke="#F5EFE2" stroke-opacity=".12"/>
  <path d="M465 101h100M465 126h68" stroke="#F5EFE2" stroke-opacity=".5" stroke-linecap="round"/>
  <circle cx="456" cy="101" r="5" fill="#D8C7A3"/>
  <circle cx="456" cy="126" r="5" fill="#86A7B6"/>
  <rect x="94" y="72" width="142" height="72" rx="18" fill="#050604" fill-opacity=".68" stroke="#F5EFE2" stroke-opacity=".12"/>
  <path d="M119 109h91M119 127h57" stroke="#F5EFE2" stroke-opacity=".44" stroke-linecap="round"/>
  <circle cx="594" cy="397" r="46" fill="#D8C7A3" fill-opacity=".13" stroke="#D8C7A3" stroke-opacity=".32"/>
  <path d="M574 397h40M594 377v40" stroke="#F5EFE2" stroke-opacity=".5"/>
  <defs>
    <linearGradient id="paint0_linear" x1="64" y1="51" x2="647" y2="475" gradientUnits="userSpaceOnUse">
      <stop stop-color="#F5EFE2" stop-opacity=".08"/>
      <stop offset=".45" stop-color="#D8C7A3" stop-opacity=".05"/>
      <stop offset="1" stop-color="#86A7B6" stop-opacity=".08"/>
    </linearGradient>
    <linearGradient id="paint1_linear" x1="201" y1="99" x2="522" y2="198" gradientUnits="userSpaceOnUse">
      <stop stop-color="#F5EFE2" stop-opacity=".2"/>
      <stop offset=".5" stop-color="#D8C7A3" stop-opacity=".24"/>
      <stop offset="1" stop-color="#86A7B6" stop-opacity=".12"/>
    </linearGradient>
  </defs>
</svg>
