<svg width="720" height="520" viewBox="0 0 720 520" fill="none" xmlns="http://www.w3.org/2000/svg">
  <rect width="720" height="520" rx="42" fill="#ffffff" stroke="#1f1b14" stroke-opacity=".08"/>
  <rect x="38" y="36" width="644" height="448" rx="34" fill="url(#paint0_linear)" stroke="#d8c7a3" stroke-opacity=".5"/>
  <path d="M96 153h528M96 345h528M151 101v320M569 101v320" stroke="#7a6b4e" stroke-opacity=".12"/>
  <path d="M360 88 146 183h428L360 88Z" fill="url(#paint1_linear)" stroke="#a9895d" stroke-opacity=".4"/>
  <path d="M185 183h350v34H185v-34Z" fill="#d8c7a3" fill-opacity=".35" stroke="#a9895d" stroke-opacity=".35"/>
  <path d="M208 217h55v150h-55V217Zm125 0h55v150h-55V217Zm125 0h55v150h-55V217Z" fill="#ffffff" stroke="#a9895d" stroke-opacity=".35"/>
  <path d="M154 367h412v39H154v-39Z" fill="#d8c7a3" fill-opacity=".32" stroke="#a9895d" stroke-opacity=".35"/>
  <path d="M128 406h464v37H128v-37Z" fill="#e8dfce" stroke="#a9895d" stroke-opacity=".3"/>
  <circle cx="360" cy="184" r="58" fill="#ffffff" stroke="#d8c7a3" stroke-width="2"/>
  <path d="M324 188c29-29 42-29 71 0-29 29-42 29-71 0Z" fill="#d8c7a3" fill-opacity=".45" stroke="#a9895d" stroke-opacity=".7"/>
  <path d="M360 155v64M328 187h64" stroke="#7a6b4e" stroke-opacity=".6"/>
  <rect x="433" y="64" width="166" height="104" rx="22" fill="#ffffff" stroke="#1f1b14" stroke-opacity=".1"/>
  <path d="M465 101h100M465 126h68" stroke="#7a6b4e" stroke-opacity=".6" stroke-linecap="round"/>
  <circle cx="456" cy="101" r="5" fill="#a9895d"/>
  <circle cx="456" cy="126" r="5" fill="#86a7b6"/>
  <rect x="94" y="72" width="142" height="72" rx="18" fill="#ffffff" stroke="#1f1b14" stroke-opacity=".1"/>
  <path d="M119 109h91M119 127h57" stroke="#7a6b4e" stroke-opacity=".55" stroke-linecap="round"/>
  <circle cx="594" cy="397" r="46" fill="#d8c7a3" fill-opacity=".3" stroke="#a9895d" stroke-opacity=".5"/>
  <path d="M574 397h40M594 377v40" stroke="#7a6b4e" stroke-opacity=".6"/>
  <defs>
    <linearGradient id="paint0_linear" x1="64" y1="51" x2="647" y2="475" gradientUnits="userSpaceOnUse">
      <stop stop-color="#faf8f4"/>
      <stop offset=".45" stop-color="#f4f0e6"/>
      <stop offset="1" stop-color="#ede7db"/>
    </linearGradient>
    <linearGradient id="paint1_linear" x1="201" y1="99" x2="522" y2="198" gradientUnits="userSpaceOnUse">
      <stop stop-color="#ffffff"/>
      <stop offset=".5" stop-color="#f5efe2"/>
      <stop offset="1" stop-color="#e8dfce"/>
    </linearGradient>
  </defs>
</svg>
