<svg xmlns="http://www.w3.org/2000/svg" viewBox="0 0 1200 675">
  <rect width="1200" height="675" rx="36" fill="#061017"/>
  <rect x="62" y="58" width="1076" height="560" rx="30" fill="#0b1020" stroke="#1f3b4d"/>
  <rect x="104" y="112" width="310" height="410" rx="24" fill="#0f172a"/>
  <rect x="454" y="112" width="310" height="410" rx="24" fill="#0f172a"/>
  <rect x="804" y="112" width="250" height="410" rx="24" fill="#0f172a"/>
  <circle cx="260" cy="258" r="92" fill="#38bdf8" opacity=".2"/>
  <path d="M205 314 260 210l74 104z" fill="#38bdf8" opacity=".65"/>
  <circle cx="608" cy="242" r="70" fill="#8b5cf6" opacity=".5"/>
  <rect x="504" y="364" width="210" height="22" rx="11" fill="#334155"/>
  <rect x="504" y="414" width="168" height="18" rx="9" fill="#1f2937"/>
  <rect x="844" y="166" width="170" height="16" rx="8" fill="#38bdf8" opacity=".5"/>
  <rect x="844" y="218" width="126" height="16" rx="8" fill="#8b5cf6" opacity=".5"/>
  <rect x="844" y="270" width="152" height="16" rx="8" fill="#38bdf8" opacity=".35"/>
  <text x="104" y="582" fill="#f8fafc" font-family="Arial" font-size="38" font-weight="700">Deal-Docks AI</text>
</svg>
