<svg xmlns="http://www.w3.org/2000/svg" viewBox="0 0 1200 675">
  <rect width="1200" height="675" rx="36" fill="#060914"/>
  <rect x="48" y="46" width="1104" height="583" rx="28" fill="#0b1020" stroke="#24304d"/>
  <rect x="82" y="86" width="216" height="503" rx="20" fill="#090d1a"/>
  <rect x="332" y="86" width="350" height="230" rx="22" fill="#111936"/>
  <rect x="712" y="86" width="358" height="230" rx="22" fill="#111936"/>
  <rect x="332" y="348" width="738" height="190" rx="22" fill="#10172f"/>
  <path d="M370 250c80-82 148 8 224-66" fill="none" stroke="#38bdf8" stroke-width="8"/>
  <path d="M748 254c52-116 175-98 266-20" fill="none" stroke="#8b5cf6" stroke-width="8"/>
  <circle cx="915" cy="194" r="66" fill="#38bdf8" opacity=".12"/>
  <circle cx="915" cy="194" r="42" fill="#8b5cf6" opacity=".55"/>
  <g fill="#1f2a44">
    <rect x="116" y="132" width="130" height="14" rx="7"/>
    <rect x="116" y="184" width="118" height="14" rx="7"/>
    <rect x="116" y="236" width="146" height="14" rx="7"/>
    <rect x="116" y="288" width="100" height="14" rx="7"/>
    <rect x="116" y="340" width="132" height="14" rx="7"/>
  </g>
  <g fill="#38bdf8" opacity=".5">
    <rect x="370" y="394" width="128" height="18" rx="9"/>
    <rect x="370" y="442" width="360" height="12" rx="6"/>
    <rect x="370" y="476" width="292" height="12" rx="6"/>
    <rect x="370" y="510" width="420" height="12" rx="6"/>
  </g>
  <text x="84" y="598" fill="#f8fafc" font-family="Arial" font-size="38" font-weight="700">DevInsight AI</text>
</svg>
